# xmcd
#
# Track frame offsets:
#	150
#	11397
#	21458
#	32629
#	41985
#	50379
#	60813
#	72708
#	82193
#	94238
#
# Disc length: 1375 seconds
#
# Revision: 0
# Processed by: cddbd v1.5.2PL0 Copyright (c) Steve Scherf et al.
# Submitted via: dBpowerAMP V4.0
#
DISCID=84055d0a
DTITLE=Conway Twitty - Conway Twitty CD 2
DYEAR=2007
DGENRE=Country
TTITLE0=Angel's Wings
TTITLE1=It's Only Make Believe
TTITLE2=Heavenly
TTITLE3=Don't Go Too Far
TTITLE4=Blue Is The Way I Feel Since You're Gone
TTITLE5=I'll Try
TTITLE6=What Am I Living For
TTITLE7=This Road That I Walk
TTITLE8=Shake It Up Baby
TTITLE9=I Wonder If You Told Her (About Me)
EXTD=
EXTT0=
EXTT1=
EXTT2=
EXTT3=
EXTT4=
EXTT5=
EXTT6=
EXTT7=
EXTT8=
EXTT9=
PLAYORDER=
